<?xml version="1.0" encoding="utf-8"?>
<!-- Generator: Adobe Illustrator 23.1.0, SVG Export Plug-In . SVG Version: 6.00 Build 0)  -->
<svg version="1.1" id="Layer_1" xmlns="http://www.w3.org/2000/svg" xmlns:xlink="http://www.w3.org/1999/xlink" x="0px" y="0px"
	 viewBox="0 0 2500 974" style="enable-background:new 0 0 2500 974;" xml:space="preserve">
<style type="text/css">
	.st0{fill:#5B5B5B;}
	.st1{fill:#09A0E9;}
</style>
<path class="st0" d="M149.6,961.1h134.3v-388h149.6v-93.8H0v93.8h149.6V961.1z M469.1,246.2c-33,10.2-65.9,2.5-65.9-40.6
	c0-65.9,154.7-121.7,177.5-180c5-15.2,5-25.3,0-25.3c-5,0,0,7.6-12.7,17.8c-63.4,63.4-172.4,63.4-256.1,101.4
	c-53.3,25.2-213,98.7-177.5,266.2c2.5,7.6,7.6,35.5,10.2,35.5c7.6-2.5,7.6-17.8,7.6-38c0-98.9,116.6-126.7,154.7-192.7
	c5-7.6,12.7-17.8,15.2-12.7v12.7c-12.7,53.3-68.4,88.8-53.3,126.7c20.3,50.8,81.1,12.7,98.9-20.3c5-7.6,7.6-15.2,10.2-12.7
	c2.5,0,2.5,10.2,0,20.3c-10.2,58.3-22.8,88.8-65.9,121.7c-12.7,10.2-35.5,12.7-33,20.3c0,2.5,10.2,2.5,17.8,0
	c111.6-7.6,205.3-139.4,230.8-225.6c2.5-5,2.5-12.7,0-15.2c-2.5-2.5-7.6,2.5-12.7,7.6C504.6,228.4,486.9,241,469.1,246.2
	L469.1,246.2z M1610.1,760.8c0-53.3,33-98.9,83.6-98.9c60.8,0,86.2,43.1,86.2,98.9H1610.1z M1845.9,806.4V776
	c0-93.8-53.3-157.2-147-157.2c-106.4,0-154.7,81.1-154.7,180s43.1,175,149.6,175c81.1,0,139.4-38,149.6-114.1h-68.7
	c-7.6,48.1-33,68.4-81.1,68.4c-65.9,0-86.2-58.3-86.2-119.2L1845.9,806.4L1845.9,806.4z M1924.5,479.3h63.4v481.8h-63.4V479.3z
	 M2185.6,961.1V669.5h78.6v-43.1h-78.6v-53.3c0-38,17.8-45.6,55.8-45.6c10.2,0,20.3,2.5,33,2.5v-53.3c-15.2-2.5-30.5-7.6-45.6-7.6
	c-60.8,0-103.9,30.5-103.9,93.8v63.4H2059v43.1h65.9v291.6H2185.6z M2299.7,626.4v43.1h58.3V885c0,45.6,0,86.2,93.8,86.2
	c15.2,0,27.8-2.5,43.1-5V918c-10.2,2.5-22.8,5-33,5c-22.8,0-40.6-12.7-40.6-35.5V672h78.6V629h-78.6v-91.3l-63.4,17.8v71H2299.7z
	 M1090.3,961.1h164.8c205.3,0,228.2-175,228.2-240.8s-22.8-240.8-228.2-240.8h-164.8V961.1z M1156.2,537.6h98.9
	c111.6,0,157.2,83.6,157.2,182.5s-45.6,182.7-157.2,182.7h-98.9L1156.2,537.6L1156.2,537.6z"/>
<path class="st1" d="M725.2,877.5c63.4,0,96.4-40.6,96.4-98.9V479.3h134.4v304.3C953.4,918,846.9,971.3,725.2,971.3
	S496.9,918,494.4,783.6V479.3h134.4v299.2C628.8,836.9,661.8,877.5,725.2,877.5z"/>
</svg>
